<?xml version="1.0" standalone="no"?>
<!DOCTYPE svg PUBLIC "-//W3C//DTD SVG 20010904//EN"
 "http://www.w3.org/TR/2001/REC-SVG-20010904/DTD/svg10.dtd">
<svg version="1.0" xmlns="http://www.w3.org/2000/svg"
 width="500.000000pt" height="500.000000pt" viewBox="0 0 500.000000 500.000000"
 preserveAspectRatio="xMidYMid meet">
<metadata>
Created by potrace 1.11, written by Peter Selinger 2001-2013
</metadata>
<g transform="translate(0.000000,500.000000) scale(0.100000,-0.100000)"
fill="#000000" stroke="none">
<path d="M692 2408 l3 -1343 363 -3 362 -2 0 490 0 491 91 -3 91 -3 56 -95
c30 -52 93 -160 140 -240 47 -80 101 -174 122 -210 20 -36 84 -146 142 -245
l105 -180 1127 -3 1126 -2 0 295 0 295 -515 0 -515 0 0 1050 0 1050 -364 0
-363 0 4 -857 c2 -472 0 -963 -4 -1092 l-8 -234 -217 326 c-120 180 -218 331
-218 335 0 5 30 29 68 54 134 90 233 200 302 338 51 100 61 151 67 323 5 133
3 169 -12 225 -80 293 -275 457 -640 538 -138 31 -392 43 -933 44 l-382 0 2
-1342z m950 782 c197 -20 288 -110 288 -285 0 -133 -54 -224 -167 -280 -54
-28 -67 -30 -200 -33 l-143 -4 0 306 0 306 68 0 c37 0 106 -4 154 -10z"/>
<path d="M504 945 l1 -70 65 -1 65 -1 -60 6 -60 6 -6 65 -6 65 1 -70z"/>
</g>
</svg>
