<?xml version="1.0" standalone="no"?>
<!DOCTYPE svg PUBLIC "-//W3C//DTD SVG 20010904//EN"
 "http://www.w3.org/TR/2001/REC-SVG-20010904/DTD/svg10.dtd">
<svg version="1.0" xmlns="http://www.w3.org/2000/svg"
 width="500.000000pt" height="500.000000pt" viewBox="0 0 500.000000 500.000000"
 preserveAspectRatio="xMidYMid meet">
<metadata>
Created by potrace 1.11, written by Peter Selinger 2001-2013
</metadata>
<g transform="translate(0.000000,500.000000) scale(0.100000,-0.100000)"
fill="#000000" stroke="none">
<path d="M830 2507 l0 -1587 428 2 427 3 3 578 2 578 107 -3 107 -3 213 -365
213 -365 0 -213 0 -212 1038 2 1037 3 3 343 2 342 -610 0 -610 0 -2 1238 -3
1237 -405 3 c-223 1 -415 0 -427 -3 -13 -3 -23 -13 -23 -21 0 -13 -7 -15 -32
-10 -114 20 -282 27 -840 33 l-628 6 0 -1586z m1174 918 c209 -37 295 -143
284 -350 -8 -152 -66 -249 -182 -304 -77 -37 -159 -51 -303 -51 l-113 0 0 360
0 360 118 0 c64 -1 152 -7 196 -15z"/>
</g>
</svg>
